<?xml version="1.0" standalone="no"?><!DOCTYPE svg PUBLIC "-//W3C//DTD SVG 1.1//EN" "http://www.w3.org/Graphics/SVG/1.1/DTD/svg11.dtd"><svg t="1729609306970" class="icon" viewBox="0 0 1024 1024" version="1.1" xmlns="http://www.w3.org/2000/svg" p-id="6439" xmlns:xlink="http://www.w3.org/1999/xlink" width="256" height="256"><path d="M499.72224 985.73312c0-15.39584-0.2816-29.72672-0.83968-42.98752l-0.0256-0.33792-0.3072 3.3792c-1.3824 16.55296-0.98816 29.87008 1.1776 39.94624z m10.41408 21.25312l0.04096-0.34816c0.28672-2.05824 0.76288-3.75296 1.42336-5.0688 0 3.51744 0.88064 10.99264 2.6368 22.43072l6.59968-106.88512c1.76128 21.9904 2.6368 40.9088 2.6368 56.73984l-0.03072 1.32096 0.42496-9.1136c6.59456-144.13312 9.97888-250.50624 10.15808-319.11424l0.00512-5.632c0-12.3136 2.64192-30.5664 7.92064-54.7584 5.2736-24.192 8.35584-42.0096 9.23648-53.44256 0.88064-29.0304 1.75616-51.02592 2.6368-65.98144 1.76128-7.91552 5.27872-14.07488 10.55744-18.47296V442.0608h1.32096l2.6368 1.32096 3.95776 2.6368 2.64192-6.59456c3.51744-2.64192 7.03488-6.59968 10.55744-11.8784l-1.32096-5.2736h11.8784c3.51744-7.04 5.71392-12.75904 6.59456-17.15712h3.95776c36.0704-46.62784 64.22016-80.49664 84.4544-101.61152 48.384-59.81696 84.0192-105.12384 106.89024-135.91552 6.15424-6.15936 14.5152-11.43808 25.06752-15.83616 0-7.91552 1.98144-18.69312 5.9392-32.32768 3.95776-13.63456 5.9392-23.97184 5.9392-31.01184l-17.152-18.47296h-7.92064c-6.15936-2.64192-9.6768-6.59968-10.55744-11.8784v-3.95776l-6.59456 3.95776v-6.59456c-7.04-11.43808-12.31872-19.79392-15.83616-25.07264-5.27872 0.87552-14.95552-2.64192-29.0304-10.55744h-1.32096c-2.6368 0-4.8384 0.88064-6.59968 2.6368-24.6272 1.76128-51.46112 20.67456-80.49152 56.74496-2.64192 3.51744-21.99552 32.10752-58.0608 85.77024-85.33504 124.92288-129.32096 189.14304-131.96288 192.6656-50.14016-122.28608-77.85472-188.2624-83.13344-197.9392C338.7392 51.89632 302.22336 0 276.7104 0l-18.47296 2.6368a41.0368 41.0368 0 0 1-6.59456 17.15712c-6.15936-0.88064-10.55744-1.32096-13.19936-1.32096-4.39808 8.79616-7.91552 14.95552-10.55744 18.47296h-2.6368l-6.59968 5.27872-3.95776-5.2736h-2.6368l3.95776 3.95776v3.95776h-11.8784l-1.32096 5.2736h-1.31584v6.6048l-3.95776-1.32096-5.27872 5.2736-2.64192 1.32096v6.6048l-5.2736 9.23136c-0.88576 52.7872 25.06752 125.3632 77.8496 217.73312 45.7472 80.93696 92.37504 145.59232 139.8784 193.98144l1.32096 3.95776c-0.64512 13.54752-1.05472 21.6576-1.2288 24.32l-0.0512 0.512 0.4352-2.2528c0.68608-3.12832 1.56672-5.4784 2.64192-7.04l0.83968-1.024c0.88064 3.51744 1.32096 6.15936 1.32096 7.91552 0 5.27872-1.1008 12.53888-3.29728 21.77536-2.2016 9.23648-3.3024 16.05632-3.3024 20.4544v5.2736l5.27872-18.47296 2.64192 11.8784c-3.52256 14.07488-5.27872 36.0704-5.27872 65.97632 0 96.768 9.23648 207.616 27.70944 332.53888 1.76128-1.76128 3.07712-3.51744 3.95776-5.27872l2.64192 3.95776c0-0.88064 0.44032 15.39584 1.31584 48.82432l3.96288-48.82432 1.31584 6.59968c0-29.0304 1.76128-48.384 5.27872-58.0608v-1.32096c2.64192 14.9504 4.4032 28.59008 5.27872 40.9088l2.64192-22.43584c3.36384 39.01952 4.92544 71.0912 4.68992 96.22016l-0.0768 4.07552 0.19456-4.6336c3.7376-95.86176 5.6576-145.7152 5.74464-149.56544v-0.19968l1.32096 9.23648v-14.5152l2.64192-3.95776h1.32096c2.6368 0 4.39808 0.88064 5.2736 2.64192l5.27872 58.0608 1.32096-52.7872c3.51744 33.4336 5.71904 59.82208 6.59968 79.17568l1.32096-62.01856c2.5088 15.0784 4.30592 32.89088 5.38112 53.4272l0.34816 7.49568 0.20992-2.26304 0.65536-5.87776c3.51744-31.6672 5.27872-49.26464 5.27872-52.7872l3.95776 5.28384 1.1776 120.22272z" fill="#061161" p-id="6440"></path></svg>