<svg t="1730176043951" class="icon" viewBox="0 0 2060 1024" version="1.1" xmlns="http://www.w3.org/2000/svg" p-id="3513" width="256" height="256"><path d="M2057.2 454.3c2.4 12.3 3.3 21.9 2.6 29-1 47.7-3.2 83.1-6.4 106.5-5.2 41.8-15.6 75.2-31.3 100.1-3.7 5.4-10.8 9.8-21 13.3l-10.9 2.9c-20.9 5.6-41.5 1.2-61.7-13.3-18.8-12.2-30.7-28-35.9-47.3 1-2.9 2.4-7.1 4.3-12.9 4.1-29.6 8.3-59.1 12.4-88.7s3-59.6-3.4-89.8c-3.5-16.3-6.8-30.1-9.8-41.3-26.3-98.3-81.7-171.1-166-218.4-81.1-44.8-167.5-54.8-259.3-30.2-95.9 25.7-166.9 80.2-213.2 163.5-46.3 83.3-56.6 173-30.9 269 18.4 68.6 54.3 126.9 107.7 174.8 48.9 44 105.4 72.9 169.6 86.8 43 9.2 93.9 5.9 152.8-9.9 38.7-10.4 70.1-23.5 94.3-39.7 6.6-4.4 31.1-24.2 73.5-59.3 10.5-8.9 21.1-14.8 31.5-17.6 22.6-6 42.8-0.7 60.6 16 17.9 16.7 28.6 36.7 32.2 59.9 0.5 5.1-0.9 11.1-4.2 18-28.9 56-93 106.3-192.2 151-5.4 2.3-15.3 5.5-29.8 9.3-4 1.1-9.2 2.5-15.7 4.2-6.4 1.7-10 2.7-10.8 2.9-141.5 37.9-272.4 17.4-392.7-61.6-110.6-72-182.9-171.1-216.7-297.3-25.2-94-24.1-191.3 3.3-291.7 5.9-19.7 20.5-50.3 43.9-91.9 16.8-30.4 36.2-58 58-82.8C1255.9 94.7 1336.6 45.1 1433.9 19c136.7-36.6 262.9-18.9 378.7 53 115.8 71.9 192 176.3 228.6 312.9 8.2 30.6 13.5 53.7 16 69.4zM609.7 372.8L890.5 71.5c37.3-41.4 82.7-61.5 139-61.5 45.2 0 85.2 14.3 119.1 42.7l-417 452.4L609.7 372.8zM595.5 1022.4c-49 0-88.8-39.9-88.8-88.8V606.9L0 52.6C33.8 24.3 73.8 10 119 10c55.2 0 100.7 20.1 139 61.5l426.3 465.4v396.7c0 48.9-39.8 88.8-88.8 88.8z" fill="#1296db" p-id="3514"></path></svg>
